STARTFONT 2.1
FONT -FontForge-ITC Benguiat Gothic Std-Bold-R-Normal--16-150-75-75-P-84-ISO8859-1
SIZE 15 75 75
FONTBOUNDINGBOX 19 19 -3 -4
COMMENT "Generated by fontforge, http://fontforge.sourceforge.net"
COMMENT "Copyright 1990, 1995 , 2002Adobe Systems Incorporated. All Rights Reserved. ITC Benguiat Gothic is a registered trademark of International Typeface Corporation."
STARTPROPERTIES 40
FOUNDRY "FontForge"
FAMILY_NAME "ITC Benguiat Gothic Std"
WEIGHT_NAME "Bold"
SLANT "R"
SETWIDTH_NAME "Normal"
ADD_STYLE_NAME ""
PIXEL_SIZE 16
POINT_SIZE 150
RESOLUTION_X 75
RESOLUTION_Y 75
SPACING "P"
AVERAGE_WIDTH 84
CHARSET_REGISTRY "ISO8859"
CHARSET_ENCODING "1"
FONTNAME_REGISTRY ""
CHARSET_COLLECTIONS "ISOLatin1Encoding"
FONT_NAME "BenguiatGothicStd-Bold"
FACE_NAME "ITC Benguiat Gothic Std Bold"
COPYRIGHT "Copyright 1990, 1995 , 2002Adobe Systems Incorporated. All Rights Reserved. ITC Benguiat Gothic is a registered trademark of International Typeface Corporation."
FONT_VERSION "001.001"
FONT_ASCENT 11
FONT_DESCENT 5
UNDERLINE_POSITION -2
UNDERLINE_THICKNESS 1
X_HEIGHT 8
CAP_HEIGHT 10
RAW_ASCENT 691
RAW_DESCENT 309
NORM_SPACE 5
RELATIVE_WEIGHT 70
RELATIVE_SETWIDTH 50
SUPERSCRIPT_X 0
SUPERSCRIPT_Y 5
SUPERSCRIPT_SIZE 9
SUBSCRIPT_X 0
SUBSCRIPT_Y 1
SUBSCRIPT_SIZE 9
FIGURE_WIDTH 10
AVG_LOWERCASE_WIDTH 81
AVG_UPPERCASE_WIDTH 98
ENDPROPERTIES
CHARS 253
STARTCHAR space
ENCODING 32
SWIDTH 305 0
DWIDTH 5 0
BBX 1 1 0 0
BITMAP
00
ENDCHAR
STARTCHAR exclam
ENCODING 33
SWIDTH 333 0
DWIDTH 5 0
BBX 2 11 2 0
BITMAP
C0
C0
C0
C0
C0
C0
C0
80
00
C0
C0
ENDCHAR
STARTCHAR quotedbl
ENCODING 34
SWIDTH 333 0
DWIDTH 5 0
BBX 5 4 0 7
BITMAP
58
D8
D8
D8
ENDCHAR
STARTCHAR numbersign
ENCODING 35
SWIDTH 611 0
DWIDTH 10 0
BBX 8 11 1 0
BITMAP
36
36
36
FF
24
24
64
FE
6C
6C
4C
ENDCHAR
STARTCHAR dollar
ENCODING 36
SWIDTH 611 0
DWIDTH 10 0
BBX 8 13 1 -1
BITMAP
10
10
7E
FE
C0
FE
1F
13
13
FF
FC
10
10
ENDCHAR
STARTCHAR percent
ENCODING 37
SWIDTH 944 0
DWIDTH 15 0
BBX 13 11 1 0
BITMAP
70C0
F8C0
CD80
D980
FB00
3360
06F8
04D8
0CD8
18F8
1870
ENDCHAR
STARTCHAR ampersand
ENCODING 38
SWIDTH 778 0
DWIDTH 12 0
BBX 12 11 0 0
BITMAP
1E00
3F00
3300
3360
3E60
6E60
6760
E3C0
61C0
7FF0
1E30
ENDCHAR
STARTCHAR quotesingle
ENCODING 39
SWIDTH 222 0
DWIDTH 4 0
BBX 2 4 1 7
BITMAP
C0
C0
C0
C0
ENDCHAR
STARTCHAR parenleft
ENCODING 40
SWIDTH 389 0
DWIDTH 6 0
BBX 5 15 1 -4
BITMAP
18
30
60
60
C0
C0
C0
C0
C0
C0
C0
60
60
30
18
ENDCHAR
STARTCHAR parenright
ENCODING 41
SWIDTH 389 0
DWIDTH 6 0
BBX 4 15 1 -4
BITMAP
80
C0
60
60
30
30
30
30
30
30
30
60
60
C0
80
ENDCHAR
STARTCHAR asterisk
ENCODING 42
SWIDTH 444 0
DWIDTH 7 0
BBX 5 6 1 5
BITMAP
20
A8
70
F8
A8
20
ENDCHAR
STARTCHAR plus
ENCODING 43
SWIDTH 600 0
DWIDTH 10 0
BBX 8 9 1 0
BITMAP
18
18
18
18
FF
FF
18
18
18
ENDCHAR
STARTCHAR comma
ENCODING 44
SWIDTH 305 0
DWIDTH 5 0
BBX 3 4 1 -1
BITMAP
60
E0
C0
C0
ENDCHAR
STARTCHAR hyphen
ENCODING 45
SWIDTH 333 0
DWIDTH 5 0
BBX 4 2 1 3
BITMAP
F0
E0
ENDCHAR
STARTCHAR period
ENCODING 46
SWIDTH 305 0
DWIDTH 5 0
BBX 3 2 1 0
BITMAP
E0
C0
ENDCHAR
STARTCHAR slash
ENCODING 47
SWIDTH 278 0
DWIDTH 4 0
BBX 5 11 0 0
BITMAP
18
18
30
30
30
60
60
C0
C0
C0
80
ENDCHAR
STARTCHAR zero
ENCODING 48
SWIDTH 611 0
DWIDTH 10 0
BBX 9 11 0 0
BITMAP
1E00
3F00
7380
6180
6180
E180
6180
6180
7380
3F00
1E00
ENDCHAR
STARTCHAR one
ENCODING 49
SWIDTH 611 0
DWIDTH 10 0
BBX 8 11 1 0
BITMAP
18
F8
18
18
18
18
18
18
18
7F
7F
ENDCHAR
STARTCHAR two
ENCODING 50
SWIDTH 611 0
DWIDTH 10 0
BBX 8 11 1 0
BITMAP
FC
FE
07
07
0E
3C
78
E0
C0
FF
FF
ENDCHAR
STARTCHAR three
ENCODING 51
SWIDTH 611 0
DWIDTH 10 0
BBX 8 11 1 0
BITMAP
FE
FE
1C
78
7E
07
03
03
03
FF
FC
ENDCHAR
STARTCHAR four
ENCODING 52
SWIDTH 611 0
DWIDTH 10 0
BBX 10 11 0 0
BITMAP
0600
1F00
3B00
3300
6300
6300
C300
FFC0
7FC0
0300
0300
ENDCHAR
STARTCHAR five
ENCODING 53
SWIDTH 611 0
DWIDTH 10 0
BBX 8 11 1 0
BITMAP
FE
FE
C0
F8
FE
07
03
03
03
FF
FC
ENDCHAR
STARTCHAR six
ENCODING 54
SWIDTH 611 0
DWIDTH 10 0
BBX 8 11 1 0
BITMAP
3F
7F
E0
DC
FE
E7
C3
C3
C3
7E
3C
ENDCHAR
STARTCHAR seven
ENCODING 55
SWIDTH 611 0
DWIDTH 10 0
BBX 8 11 1 0
BITMAP
FF
FF
07
06
0E
1C
18
38
30
30
30
ENDCHAR
STARTCHAR eight
ENCODING 56
SWIDTH 611 0
DWIDTH 10 0
BBX 9 11 0 0
BITMAP
1E00
7F00
6380
6380
3F00
7F80
6180
E180
6180
7F80
3E00
ENDCHAR
STARTCHAR nine
ENCODING 57
SWIDTH 611 0
DWIDTH 10 0
BBX 9 11 0 0
BITMAP
1E00
7F00
6380
E180
E180
6380
7F80
1D80
0380
7F00
7E00
ENDCHAR
STARTCHAR colon
ENCODING 58
SWIDTH 305 0
DWIDTH 5 0
BBX 3 7 1 0
BITMAP
C0
E0
00
00
00
E0
C0
ENDCHAR
STARTCHAR semicolon
ENCODING 59
SWIDTH 305 0
DWIDTH 5 0
BBX 2 8 1 -1
BITMAP
C0
C0
00
00
40
C0
C0
C0
ENDCHAR
STARTCHAR less
ENCODING 60
SWIDTH 600 0
DWIDTH 10 0
BBX 8 9 1 0
BITMAP
01
0F
3E
F0
C0
F0
3C
0F
01
ENDCHAR
STARTCHAR equal
ENCODING 61
SWIDTH 600 0
DWIDTH 10 0
BBX 8 6 1 1
BITMAP
FF
FF
00
00
FF
FF
ENDCHAR
STARTCHAR greater
ENCODING 62
SWIDTH 600 0
DWIDTH 10 0
BBX 8 9 1 0
BITMAP
80
E0
78
1F
03
1F
78
E0
80
ENDCHAR
STARTCHAR question
ENCODING 63
SWIDTH 500 0
DWIDTH 8 0
BBX 7 11 0 0
BITMAP
FC
FE
06
06
1C
38
30
30
00
30
30
ENDCHAR
STARTCHAR at
ENCODING 64
SWIDTH 800 0
DWIDTH 13 0
BBX 11 11 1 0
BITMAP
1F00
30C0
4060
DFA0
9120
B120
B160
FF40
5F80
70C0
1F00
ENDCHAR
STARTCHAR A
ENCODING 65
SWIDTH 667 0
DWIDTH 11 0
BBX 10 11 0 0
BITMAP
0C00
1E00
1B00
3300
3180
7D80
7F80
61C0
60C0
E0C0
40C0
ENDCHAR
STARTCHAR B
ENCODING 66
SWIDTH 611 0
DWIDTH 10 0
BBX 8 11 1 0
BITMAP
FE
FF
C3
E7
FE
CE
C3
C3
C3
FF
FE
ENDCHAR
STARTCHAR C
ENCODING 67
SWIDTH 611 0
DWIDTH 10 0
BBX 8 11 1 0
BITMAP
3F
7F
E0
C0
C0
C0
C0
E0
78
3F
0F
ENDCHAR
STARTCHAR D
ENCODING 68
SWIDTH 667 0
DWIDTH 11 0
BBX 9 11 1 0
BITMAP
F800
FE00
CF00
C300
C380
C180
C180
C180
C380
FF00
FE00
ENDCHAR
STARTCHAR E
ENCODING 69
SWIDTH 556 0
DWIDTH 9 0
BBX 7 11 1 0
BITMAP
FE
FE
C0
FE
FE
C0
C0
C0
C0
FE
FE
ENDCHAR
STARTCHAR F
ENCODING 70
SWIDTH 500 0
DWIDTH 8 0
BBX 7 11 1 0
BITMAP
FE
FE
C0
FC
FE
C0
C0
C0
C0
C0
C0
ENDCHAR
STARTCHAR G
ENCODING 71
SWIDTH 722 0
DWIDTH 12 0
BBX 10 11 1 0
BITMAP
3F80
7F80
E000
CF80
CFC0
C0C0
C0C0
E0C0
78C0
3FC0
0FC0
ENDCHAR
STARTCHAR H
ENCODING 72
SWIDTH 611 0
DWIDTH 10 0
BBX 8 11 1 0
BITMAP
C3
C3
C3
FF
FF
C3
C3
C3
C3
C3
C3
ENDCHAR
STARTCHAR I
ENCODING 73
SWIDTH 278 0
DWIDTH 4 0
BBX 2 11 1 0
BITMAP
C0
C0
C0
C0
C0
C0
C0
C0
C0
C0
C0
ENDCHAR
STARTCHAR J
ENCODING 74
SWIDTH 444 0
DWIDTH 7 0
BBX 6 11 0 0
BITMAP
0C
0C
0C
0C
0C
0C
0C
0C
0C
FC
78
ENDCHAR
STARTCHAR K
ENCODING 75
SWIDTH 611 0
DWIDTH 10 0
BBX 8 11 1 0
BITMAP
C3
C3
C6
FC
FC
CE
C7
C3
C3
C3
C1
ENDCHAR
STARTCHAR L
ENCODING 76
SWIDTH 444 0
DWIDTH 7 0
BBX 6 11 1 0
BITMAP
C0
C0
C0
C0
C0
C0
C0
C0
C0
FC
FC
ENDCHAR
STARTCHAR M
ENCODING 77
SWIDTH 722 0
DWIDTH 12 0
BBX 10 11 1 0
BITMAP
6180
6380
F380
F780
DE80
CCC0
C0C0
C0C0
C0C0
C0C0
C0C0
ENDCHAR
STARTCHAR N
ENCODING 78
SWIDTH 611 0
DWIDTH 10 0
BBX 8 11 1 0
BITMAP
C3
E3
F3
DF
CF
C3
C3
C3
C3
C3
C3
ENDCHAR
STARTCHAR O
ENCODING 79
SWIDTH 722 0
DWIDTH 12 0
BBX 10 11 1 0
BITMAP
3E00
7F00
E180
C1C0
C0C0
C0C0
C0C0
C1C0
E180
7F00
3E00
ENDCHAR
STARTCHAR P
ENCODING 80
SWIDTH 556 0
DWIDTH 9 0
BBX 8 11 1 0
BITMAP
FE
FF
C3
C7
DE
F8
E0
C0
C0
C0
C0
ENDCHAR
STARTCHAR Q
ENCODING 81
SWIDTH 722 0
DWIDTH 12 0
BBX 10 14 1 -3
BITMAP
3E00
7F00
E180
C1C0
C0C0
C0C0
D8C0
DDC0
E780
7F00
3F00
0300
03C0
01C0
ENDCHAR
STARTCHAR R
ENCODING 82
SWIDTH 611 0
DWIDTH 10 0
BBX 8 11 1 0
BITMAP
FE
FF
C3
F6
FE
CE
C7
C3
C3
C3
C1
ENDCHAR
STARTCHAR S
ENCODING 83
SWIDTH 611 0
DWIDTH 10 0
BBX 8 11 1 0
BITMAP
7E
FE
C0
F8
7E
07
03
03
07
FE
FC
ENDCHAR
STARTCHAR T
ENCODING 84
SWIDTH 500 0
DWIDTH 8 0
BBX 8 11 0 0
BITMAP
FF
FF
18
18
18
18
18
18
18
18
18
ENDCHAR
STARTCHAR U
ENCODING 85
SWIDTH 611 0
DWIDTH 10 0
BBX 8 11 1 0
BITMAP
C2
C2
C3
C3
C3
C3
C3
C3
C3
7E
3C
ENDCHAR
STARTCHAR V
ENCODING 86
SWIDTH 611 0
DWIDTH 10 0
BBX 9 11 0 0
BITMAP
4180
E180
6180
6180
6180
6300
3300
3300
3E00
1E00
0C00
ENDCHAR
STARTCHAR W
ENCODING 87
SWIDTH 833 0
DWIDTH 13 0
BBX 13 11 0 0
BITMAP
4318
E318
6718
6718
6730
6730
65B0
3DB0
3DE0
38E0
18C0
ENDCHAR
STARTCHAR X
ENCODING 88
SWIDTH 611 0
DWIDTH 10 0
BBX 9 11 0 0
BITMAP
6180
6380
7300
3E00
1E00
3F00
7300
6180
E180
C180
C180
ENDCHAR
STARTCHAR Y
ENCODING 89
SWIDTH 556 0
DWIDTH 9 0
BBX 9 11 0 0
BITMAP
C180
E380
6300
7700
3E00
1C00
1C00
1C00
1C00
1C00
0800
ENDCHAR
STARTCHAR Z
ENCODING 90
SWIDTH 500 0
DWIDTH 8 0
BBX 8 11 0 0
BITMAP
7E
7F
06
06
0C
1C
30
60
60
FF
7F
ENDCHAR
STARTCHAR bracketleft
ENCODING 91
SWIDTH 389 0
DWIDTH 6 0
BBX 5 15 1 -4
BITMAP
F8
F0
C0
C0
C0
C0
C0
C0
C0
C0
C0
C0
C0
F0
F8
ENDCHAR
STARTCHAR backslash
ENCODING 92
SWIDTH 278 0
DWIDTH 4 0
BBX 5 11 0 0
BITMAP
80
C0
C0
C0
60
60
30
30
30
18
18
ENDCHAR
STARTCHAR bracketright
ENCODING 93
SWIDTH 389 0
DWIDTH 6 0
BBX 4 15 1 -4
BITMAP
F0
F0
30
30
30
30
30
30
30
30
30
30
30
F0
F0
ENDCHAR
STARTCHAR asciicircum
ENCODING 94
SWIDTH 600 0
DWIDTH 10 0
BBX 7 6 1 5
BITMAP
18
38
2C
64
46
C2
ENDCHAR
STARTCHAR underscore
ENCODING 95
SWIDTH 500 0
DWIDTH 8 0
BBX 8 1 0 -2
BITMAP
FF
ENDCHAR
STARTCHAR grave
ENCODING 96
SWIDTH 278 0
DWIDTH 4 0
BBX 4 2 0 9
BITMAP
E0
30
ENDCHAR
STARTCHAR a
ENCODING 97
SWIDTH 556 0
DWIDTH 9 0
BBX 8 9 0 0
BITMAP
7E
7E
03
3F
7B
63
C3
7F
3A
ENDCHAR
STARTCHAR b
ENCODING 98
SWIDTH 556 0
DWIDTH 9 0
BBX 7 11 1 0
BITMAP
C0
C0
F8
FC
CE
C6
C6
C6
C6
FE
FC
ENDCHAR
STARTCHAR c
ENCODING 99
SWIDTH 500 0
DWIDTH 8 0
BBX 7 9 1 0
BITMAP
7E
FE
C0
C0
C0
C0
E0
7E
3E
ENDCHAR
STARTCHAR d
ENCODING 100
SWIDTH 556 0
DWIDTH 9 0
BBX 8 11 0 0
BITMAP
03
03
1F
3F
73
63
63
E3
63
7F
3F
ENDCHAR
STARTCHAR e
ENCODING 101
SWIDTH 556 0
DWIDTH 9 0
BBX 7 9 1 0
BITMAP
3C
FE
C6
C6
FE
C0
C0
FE
3E
ENDCHAR
STARTCHAR f
ENCODING 102
SWIDTH 333 0
DWIDTH 5 0
BBX 6 11 0 0
BITMAP
3C
7C
F8
F8
60
60
60
60
60
60
60
ENDCHAR
STARTCHAR g
ENCODING 103
SWIDTH 556 0
DWIDTH 9 0
BBX 9 13 0 -4
BITMAP
1F00
3F00
6300
6300
4300
4300
6300
7F00
3F80
0180
0380
FF00
7E00
ENDCHAR
STARTCHAR h
ENCODING 104
SWIDTH 556 0
DWIDTH 9 0
BBX 7 11 1 0
BITMAP
C0
C0
FC
FE
C6
C6
C6
C6
C6
C6
C6
ENDCHAR
STARTCHAR i
ENCODING 105
SWIDTH 278 0
DWIDTH 4 0
BBX 2 12 1 0
BITMAP
40
C0
00
C0
C0
C0
C0
C0
C0
C0
C0
C0
ENDCHAR
STARTCHAR j
ENCODING 106
SWIDTH 222 0
DWIDTH 4 0
BBX 5 16 -2 -4
BITMAP
08
18
00
18
18
18
18
18
18
18
18
18
18
18
F0
E0
ENDCHAR
STARTCHAR k
ENCODING 107
SWIDTH 500 0
DWIDTH 8 0
BBX 7 11 1 0
BITMAP
C0
C0
C4
CC
CC
F8
F8
CC
C6
C6
C6
ENDCHAR
STARTCHAR l
ENCODING 108
SWIDTH 278 0
DWIDTH 4 0
BBX 2 11 1 0
BITMAP
C0
C0
C0
C0
C0
C0
C0
C0
C0
C0
C0
ENDCHAR
STARTCHAR m
ENCODING 109
SWIDTH 833 0
DWIDTH 13 0
BBX 11 9 1 0
BITMAP
F9C0
FFE0
C660
C660
C660
C660
C660
C660
C420
ENDCHAR
STARTCHAR n
ENCODING 110
SWIDTH 556 0
DWIDTH 9 0
BBX 7 9 1 0
BITMAP
FC
FE
C6
C6
C6
C6
C6
C6
C6
ENDCHAR
STARTCHAR o
ENCODING 111
SWIDTH 556 0
DWIDTH 9 0
BBX 8 9 0 0
BITMAP
3C
7F
63
63
E3
63
63
7F
3C
ENDCHAR
STARTCHAR p
ENCODING 112
SWIDTH 556 0
DWIDTH 9 0
BBX 7 13 1 -4
BITMAP
F8
FC
CE
C6
C6
C6
C6
FE
FC
C0
C0
C0
C0
ENDCHAR
STARTCHAR q
ENCODING 113
SWIDTH 556 0
DWIDTH 9 0
BBX 8 13 0 -4
BITMAP
1F
3F
73
63
C3
C3
63
7F
3F
03
03
03
03
ENDCHAR
STARTCHAR r
ENCODING 114
SWIDTH 333 0
DWIDTH 5 0
BBX 4 9 1 0
BITMAP
F0
F0
C0
C0
C0
C0
C0
C0
C0
ENDCHAR
STARTCHAR s
ENCODING 115
SWIDTH 500 0
DWIDTH 8 0
BBX 8 9 0 0
BITMAP
7E
7E
60
7C
3E
03
03
7E
FC
ENDCHAR
STARTCHAR t
ENCODING 116
SWIDTH 389 0
DWIDTH 6 0
BBX 6 11 0 0
BITMAP
30
30
FC
FC
30
30
30
30
30
3C
3C
ENDCHAR
STARTCHAR u
ENCODING 117
SWIDTH 556 0
DWIDTH 9 0
BBX 7 9 1 0
BITMAP
C6
C6
C6
C6
C6
C6
C6
FE
7E
ENDCHAR
STARTCHAR v
ENCODING 118
SWIDTH 500 0
DWIDTH 8 0
BBX 6 9 1 0
BITMAP
84
84
CC
CC
CC
CC
78
78
30
ENDCHAR
STARTCHAR w
ENCODING 119
SWIDTH 722 0
DWIDTH 12 0
BBX 10 9 1 0
BITMAP
8CC0
8CC0
8CC0
CCC0
DCC0
DF80
5780
7780
3300
ENDCHAR
STARTCHAR x
ENCODING 120
SWIDTH 500 0
DWIDTH 8 0
BBX 8 9 0 0
BITMAP
66
66
66
3C
3C
66
66
C3
C3
ENDCHAR
STARTCHAR y
ENCODING 121
SWIDTH 500 0
DWIDTH 8 0
BBX 7 13 1 -4
BITMAP
86
86
C6
CC
CC
CC
78
78
30
30
60
60
40
ENDCHAR
STARTCHAR z
ENCODING 122
SWIDTH 444 0
DWIDTH 7 0
BBX 7 9 0 0
BITMAP
7E
7E
0C
1C
38
70
60
FE
FE
ENDCHAR
STARTCHAR braceleft
ENCODING 123
SWIDTH 389 0
DWIDTH 6 0
BBX 5 15 1 -4
BITMAP
38
60
60
60
60
60
60
C0
60
60
60
60
60
60
38
ENDCHAR
STARTCHAR bar
ENCODING 124
SWIDTH 222 0
DWIDTH 4 0
BBX 2 16 1 -4
BITMAP
C0
C0
C0
C0
C0
C0
C0
C0
C0
C0
C0
C0
C0
C0
C0
C0
ENDCHAR
STARTCHAR braceright
ENCODING 125
SWIDTH 389 0
DWIDTH 6 0
BBX 4 15 1 -4
BITMAP
C0
60
60
60
60
60
70
30
60
60
60
60
60
60
C0
ENDCHAR
STARTCHAR asciitilde
ENCODING 126
SWIDTH 600 0
DWIDTH 10 0
BBX 7 2 1 3
BITMAP
FE
8E
ENDCHAR
STARTCHAR uni00A0
ENCODING 160
SWIDTH 305 0
DWIDTH 5 0
BBX 1 1 0 0
BITMAP
00
ENDCHAR
STARTCHAR exclamdown
ENCODING 161
SWIDTH 333 0
DWIDTH 5 0
BBX 2 11 2 -4
BITMAP
C0
C0
00
C0
C0
C0
C0
C0
C0
C0
C0
ENDCHAR
STARTCHAR cent
ENCODING 162
SWIDTH 611 0
DWIDTH 10 0
BBX 7 11 1 0
BITMAP
18
18
7E
FE
D8
D8
D8
7E
3E
18
18
ENDCHAR
STARTCHAR sterling
ENCODING 163
SWIDTH 611 0
DWIDTH 10 0
BBX 10 11 0 0
BITMAP
0780
0FC0
1800
1800
7F00
7F80
1800
1800
1800
FF80
FF80
ENDCHAR
STARTCHAR currency
ENCODING 164
SWIDTH 611 0
DWIDTH 10 0
BBX 8 9 1 1
BITMAP
98
FF
E6
C3
C3
C3
E6
FF
98
ENDCHAR
STARTCHAR yen
ENCODING 165
SWIDTH 611 0
DWIDTH 10 0
BBX 8 11 1 0
BITMAP
C3
C3
C7
E7
FF
38
FF
FE
18
18
18
ENDCHAR
STARTCHAR brokenbar
ENCODING 166
SWIDTH 222 0
DWIDTH 4 0
BBX 2 14 1 -3
BITMAP
C0
C0
C0
C0
C0
C0
00
00
C0
C0
C0
C0
C0
C0
ENDCHAR
STARTCHAR section
ENCODING 167
SWIDTH 500 0
DWIDTH 8 0
BBX 6 11 1 0
BITMAP
7C
FC
C0
F8
BC
CC
FC
3C
0C
FC
F8
ENDCHAR
STARTCHAR dieresis
ENCODING 168
SWIDTH 278 0
DWIDTH 4 0
BBX 5 2 0 9
BITMAP
98
98
ENDCHAR
STARTCHAR copyright
ENCODING 169
SWIDTH 800 0
DWIDTH 13 0
BBX 11 11 1 0
BITMAP
1F00
7180
CEC0
D960
9060
B020
9020
D960
CE40
71C0
1F00
ENDCHAR
STARTCHAR ordfeminine
ENCODING 170
SWIDTH 334 0
DWIDTH 5 0
BBX 5 5 0 6
BITMAP
78
08
78
C8
78
ENDCHAR
STARTCHAR guillemotleft
ENCODING 171
SWIDTH 500 0
DWIDTH 8 0
BBX 6 6 1 1
BITMAP
6C
6C
D8
D8
6C
64
ENDCHAR
STARTCHAR logicalnot
ENCODING 172
SWIDTH 600 0
DWIDTH 10 0
BBX 8 5 1 2
BITMAP
FF
FF
03
03
03
ENDCHAR
STARTCHAR uni00AD
ENCODING 173
SWIDTH 333 0
DWIDTH 5 0
BBX 4 2 1 3
BITMAP
F0
E0
ENDCHAR
STARTCHAR registered
ENCODING 174
SWIDTH 800 0
DWIDTH 13 0
BBX 11 11 1 0
BITMAP
1F00
71C0
DE40
D160
9120
9E20
9660
D260
51C0
7180
1F00
ENDCHAR
STARTCHAR macron
ENCODING 175
SWIDTH 278 0
DWIDTH 4 0
BBX 5 1 0 10
BITMAP
F8
ENDCHAR
STARTCHAR degree
ENCODING 176
SWIDTH 400 0
DWIDTH 6 0
BBX 4 5 1 6
BITMAP
70
90
90
90
70
ENDCHAR
STARTCHAR plusminus
ENCODING 177
SWIDTH 600 0
DWIDTH 10 0
BBX 8 9 1 0
BITMAP
18
18
FF
FF
18
18
18
FF
FF
ENDCHAR
STARTCHAR twosuperior
ENCODING 178
SWIDTH 366 0
DWIDTH 6 0
BBX 6 7 0 4
BITMAP
F8
08
18
38
60
C0
FC
ENDCHAR
STARTCHAR threesuperior
ENCODING 179
SWIDTH 366 0
DWIDTH 6 0
BBX 6 7 0 4
BITMAP
F8
30
78
0C
0C
0C
F8
ENDCHAR
STARTCHAR acute
ENCODING 180
SWIDTH 278 0
DWIDTH 4 0
BBX 4 2 0 9
BITMAP
70
E0
ENDCHAR
STARTCHAR mu
ENCODING 181
SWIDTH 556 0
DWIDTH 9 0
BBX 7 13 1 -4
BITMAP
C6
C6
C6
C6
C6
C6
C6
FE
FE
C0
C0
C0
C0
ENDCHAR
STARTCHAR paragraph
ENCODING 182
SWIDTH 620 0
DWIDTH 10 0
BBX 8 11 1 0
BITMAP
7F
FF
FB
FB
FB
3B
1B
1B
1B
1B
1B
ENDCHAR
STARTCHAR periodcentered
ENCODING 183
SWIDTH 305 0
DWIDTH 5 0
BBX 3 2 1 3
BITMAP
E0
C0
ENDCHAR
STARTCHAR cedilla
ENCODING 184
SWIDTH 278 0
DWIDTH 4 0
BBX 4 3 0 -3
BITMAP
70
10
F0
ENDCHAR
STARTCHAR onesuperior
ENCODING 185
SWIDTH 366 0
DWIDTH 6 0
BBX 5 7 0 4
BITMAP
70
F0
30
30
30
30
F8
ENDCHAR
STARTCHAR ordmasculine
ENCODING 186
SWIDTH 334 0
DWIDTH 5 0
BBX 5 5 0 6
BITMAP
70
C8
88
C8
70
ENDCHAR
STARTCHAR guillemotright
ENCODING 187
SWIDTH 500 0
DWIDTH 8 0
BBX 6 6 1 1
BITMAP
D8
D8
6C
6C
D8
98
ENDCHAR
STARTCHAR onequarter
ENCODING 188
SWIDTH 916 0
DWIDTH 15 0
BBX 14 11 0 0
BITMAP
7030
7060
3060
30C0
3180
31B8
FB68
0648
06C8
0CFC
1808
ENDCHAR
STARTCHAR onehalf
ENCODING 189
SWIDTH 916 0
DWIDTH 15 0
BBX 14 11 0 0
BITMAP
7020
F060
30C0
30C0
3180
337C
FF0C
061C
0C30
1C40
187C
ENDCHAR
STARTCHAR threequarters
ENCODING 190
SWIDTH 916 0
DWIDTH 15 0
BBX 15 11 0 0
BITMAP
7C30
1830
7860
0CC0
04C0
0DB8
FB28
0368
0648
0CFE
0C08
ENDCHAR
STARTCHAR questiondown
ENCODING 191
SWIDTH 500 0
DWIDTH 8 0
BBX 7 11 1 -4
BITMAP
18
18
00
18
18
38
70
C0
C0
FC
7E
ENDCHAR
STARTCHAR Agrave
ENCODING 192
SWIDTH 667 0
DWIDTH 11 0
BBX 10 13 0 0
BITMAP
1E00
0200
0C00
1E00
1B00
3300
3180
7D80
7F80
61C0
60C0
E0C0
40C0
ENDCHAR
STARTCHAR Aacute
ENCODING 193
SWIDTH 667 0
DWIDTH 11 0
BBX 10 13 0 0
BITMAP
0F00
1800
0C00
1E00
1B00
3300
3180
7D80
7F80
61C0
60C0
E0C0
40C0
ENDCHAR
STARTCHAR Acircumflex
ENCODING 194
SWIDTH 667 0
DWIDTH 11 0
BBX 10 14 0 0
BITMAP
0C00
1A00
0000
0C00
1E00
1B00
3300
3180
7D80
7F80
61C0
60C0
E0C0
40C0
ENDCHAR
STARTCHAR Atilde
ENCODING 195
SWIDTH 667 0
DWIDTH 11 0
BBX 10 14 0 0
BITMAP
0900
1F00
0000
0C00
1E00
1B00
3300
3180
7D80
7F80
61C0
60C0
E0C0
40C0
ENDCHAR
STARTCHAR Adieresis
ENCODING 196
SWIDTH 667 0
DWIDTH 11 0
BBX 10 14 0 0
BITMAP
1300
1300
0000
0C00
1E00
1B00
3300
3180
7D80
7F80
61C0
60C0
E0C0
40C0
ENDCHAR
STARTCHAR Aring
ENCODING 197
SWIDTH 667 0
DWIDTH 11 0
BBX 10 15 0 0
BITMAP
0C00
0A00
0E00
0000
0C00
1E00
1B00
3300
3180
7D80
7F80
61C0
60C0
E0C0
40C0
ENDCHAR
STARTCHAR AE
ENCODING 198
SWIDTH 889 0
DWIDTH 14 0
BBX 14 11 0 0
BITMAP
07FC
0FFC
1980
31F8
3FF8
7D80
7180
E180
C180
C1FC
C1FC
ENDCHAR
STARTCHAR Ccedilla
ENCODING 199
SWIDTH 611 0
DWIDTH 10 0
BBX 8 14 1 -3
BITMAP
3F
7F
E0
C0
C0
C0
C0
E0
78
3F
0F
08
06
1E
ENDCHAR
STARTCHAR Egrave
ENCODING 200
SWIDTH 556 0
DWIDTH 9 0
BBX 7 14 1 0
BITMAP
20
78
0C
FE
FE
C0
FE
FE
C0
C0
C0
C0
FE
FE
ENDCHAR
STARTCHAR Eacute
ENCODING 201
SWIDTH 556 0
DWIDTH 9 0
BBX 7 14 1 0
BITMAP
04
3C
20
FE
FE
C0
FE
FE
C0
C0
C0
C0
FE
FE
ENDCHAR
STARTCHAR Ecircumflex
ENCODING 202
SWIDTH 556 0
DWIDTH 9 0
BBX 7 14 1 0
BITMAP
18
28
04
FE
FE
C0
FE
FE
C0
C0
C0
C0
FE
FE
ENDCHAR
STARTCHAR Edieresis
ENCODING 203
SWIDTH 556 0
DWIDTH 9 0
BBX 7 14 1 0
BITMAP
6C
6C
00
FE
FE
C0
FE
FE
C0
C0
C0
C0
FE
FE
ENDCHAR
STARTCHAR Igrave
ENCODING 204
SWIDTH 278 0
DWIDTH 4 0
BBX 4 14 0 0
BITMAP
80
F0
10
60
60
60
60
60
60
60
60
60
60
60
ENDCHAR
STARTCHAR Iacute
ENCODING 205
SWIDTH 278 0
DWIDTH 4 0
BBX 4 14 0 0
BITMAP
10
70
C0
60
60
60
60
60
60
60
60
60
60
60
ENDCHAR
STARTCHAR Icircumflex
ENCODING 206
SWIDTH 278 0
DWIDTH 4 0
BBX 4 14 0 0
BITMAP
60
D0
00
60
60
60
60
60
60
60
60
60
60
60
ENDCHAR
STARTCHAR Idieresis
ENCODING 207
SWIDTH 278 0
DWIDTH 4 0
BBX 5 14 0 0
BITMAP
98
98
00
60
60
60
60
60
60
60
60
60
60
60
ENDCHAR
STARTCHAR Eth
ENCODING 208
SWIDTH 667 0
DWIDTH 11 0
BBX 10 11 0 0
BITMAP
7C00
7F00
6780
6180
F9C0
FCC0
60C0
60C0
61C0
7F80
7F00
ENDCHAR
STARTCHAR Ntilde
ENCODING 209
SWIDTH 611 0
DWIDTH 10 0
BBX 8 14 1 0
BITMAP
02
3C
40
C3
E3
F3
DF
CF
C3
C3
C3
C3
C3
C3
ENDCHAR
STARTCHAR Ograve
ENCODING 210
SWIDTH 722 0
DWIDTH 12 0
BBX 10 13 1 0
BITMAP
1C00
0600
3E00
7F00
E180
C1C0
C0C0
C0C0
C0C0
C1C0
E180
7F00
3E00
ENDCHAR
STARTCHAR Oacute
ENCODING 211
SWIDTH 722 0
DWIDTH 12 0
BBX 10 14 1 0
BITMAP
0200
1E00
1000
3E00
7F00
E180
C1C0
C0C0
C0C0
C0C0
C1C0
E180
7F00
3E00
ENDCHAR
STARTCHAR Ocircumflex
ENCODING 212
SWIDTH 722 0
DWIDTH 12 0
BBX 10 14 1 0
BITMAP
0C00
1600
0000
3E00
7F00
E180
C1C0
C0C0
C0C0
C0C0
C1C0
E180
7F00
3E00
ENDCHAR
STARTCHAR Otilde
ENCODING 213
SWIDTH 722 0
DWIDTH 12 0
BBX 10 13 1 0
BITMAP
3E00
2000
3E00
7F00
E180
C1C0
C0C0
C0C0
C0C0
C1C0
E180
7F00
3E00
ENDCHAR
STARTCHAR Odieresis
ENCODING 214
SWIDTH 722 0
DWIDTH 12 0
BBX 10 14 1 0
BITMAP
3200
3200
0000
3E00
7F00
E180
C1C0
C0C0
C0C0
C0C0
C1C0
E180
7F00
3E00
ENDCHAR
STARTCHAR multiply
ENCODING 215
SWIDTH 600 0
DWIDTH 10 0
BBX 8 9 1 0
BITMAP
82
C7
6E
3C
18
3C
6E
C7
82
ENDCHAR
STARTCHAR Oslash
ENCODING 216
SWIDTH 722 0
DWIDTH 12 0
BBX 10 14 1 -1
BITMAP
0100
0100
3F00
7F00
E780
C7C0
CCC0
CCC0
D8C0
D9C0
F180
7F00
7E00
6000
ENDCHAR
STARTCHAR Ugrave
ENCODING 217
SWIDTH 611 0
DWIDTH 10 0
BBX 8 14 1 0
BITMAP
20
3C
0C
C2
C2
C3
C3
C3
C3
C3
C3
C3
7E
3C
ENDCHAR
STARTCHAR Uacute
ENCODING 218
SWIDTH 611 0
DWIDTH 10 0
BBX 8 14 1 0
BITMAP
04
3C
20
C2
C2
C3
C3
C3
C3
C3
C3
C3
7E
3C
ENDCHAR
STARTCHAR Ucircumflex
ENCODING 219
SWIDTH 611 0
DWIDTH 10 0
BBX 8 14 1 0
BITMAP
18
3C
00
C2
C2
C3
C3
C3
C3
C3
C3
C3
7E
3C
ENDCHAR
STARTCHAR Udieresis
ENCODING 220
SWIDTH 611 0
DWIDTH 10 0
BBX 8 14 1 0
BITMAP
66
66
00
C2
C2
C3
C3
C3
C3
C3
C3
C3
7E
3C
ENDCHAR
STARTCHAR Yacute
ENCODING 221
SWIDTH 556 0
DWIDTH 9 0
BBX 9 14 0 0
BITMAP
0200
1E00
1000
C180
E380
6300
7700
3E00
1C00
1C00
1C00
1C00
1C00
0800
ENDCHAR
STARTCHAR Thorn
ENCODING 222
SWIDTH 556 0
DWIDTH 9 0
BBX 8 11 1 0
BITMAP
C0
C0
FE
FF
C3
C7
DE
F8
C0
C0
C0
ENDCHAR
STARTCHAR germandbls
ENCODING 223
SWIDTH 556 0
DWIDTH 9 0
BBX 8 11 0 0
BITMAP
3C
7E
66
EC
F8
7C
6F
63
63
7F
7E
ENDCHAR
STARTCHAR agrave
ENCODING 224
SWIDTH 556 0
DWIDTH 9 0
BBX 8 12 0 0
BITMAP
38
1C
00
7E
7E
03
3F
7B
63
C3
7F
3A
ENDCHAR
STARTCHAR aacute
ENCODING 225
SWIDTH 556 0
DWIDTH 9 0
BBX 8 12 0 0
BITMAP
0E
3C
00
7E
7E
03
3F
7B
63
C3
7F
3A
ENDCHAR
STARTCHAR acircumflex
ENCODING 226
SWIDTH 556 0
DWIDTH 9 0
BBX 8 11 0 0
BITMAP
3C
00
7E
7E
03
3F
7B
63
C3
7F
3A
ENDCHAR
STARTCHAR atilde
ENCODING 227
SWIDTH 556 0
DWIDTH 9 0
BBX 8 11 0 0
BITMAP
3E
00
7E
7E
03
3F
7B
63
C3
7F
3A
ENDCHAR
STARTCHAR adieresis
ENCODING 228
SWIDTH 556 0
DWIDTH 9 0
BBX 8 12 0 0
BITMAP
26
26
00
7E
7E
03
3F
7B
63
C3
7F
3A
ENDCHAR
STARTCHAR aring
ENCODING 229
SWIDTH 556 0
DWIDTH 9 0
BBX 8 13 0 0
BITMAP
1C
14
1C
00
7E
7E
03
3F
7B
63
C3
7F
3A
ENDCHAR
STARTCHAR ae
ENCODING 230
SWIDTH 778 0
DWIDTH 12 0
BBX 12 9 0 0
BITMAP
7DE0
7FF0
0630
3FF0
7600
C600
C700
FFF0
7DF0
ENDCHAR
STARTCHAR ccedilla
ENCODING 231
SWIDTH 500 0
DWIDTH 8 0
BBX 7 12 1 -3
BITMAP
7E
FE
C0
C0
C0
C0
E0
7E
3E
10
0C
38
ENDCHAR
STARTCHAR egrave
ENCODING 232
SWIDTH 556 0
DWIDTH 9 0
BBX 7 12 1 0
BITMAP
70
3C
00
3C
FE
C6
C6
FE
C0
C0
FE
3E
ENDCHAR
STARTCHAR eacute
ENCODING 233
SWIDTH 556 0
DWIDTH 9 0
BBX 7 12 1 0
BITMAP
1C
78
00
3C
FE
C6
C6
FE
C0
C0
FE
3E
ENDCHAR
STARTCHAR ecircumflex
ENCODING 234
SWIDTH 556 0
DWIDTH 9 0
BBX 7 11 1 0
BITMAP
38
04
3C
FE
C6
C6
FE
C0
C0
FE
3E
ENDCHAR
STARTCHAR edieresis
ENCODING 235
SWIDTH 556 0
DWIDTH 9 0
BBX 7 12 1 0
BITMAP
6C
6C
00
3C
FE
C6
C6
FE
C0
C0
FE
3E
ENDCHAR
STARTCHAR igrave
ENCODING 236
SWIDTH 278 0
DWIDTH 4 0
BBX 4 12 0 0
BITMAP
C0
F0
00
60
60
60
60
60
60
60
60
60
ENDCHAR
STARTCHAR iacute
ENCODING 237
SWIDTH 278 0
DWIDTH 4 0
BBX 4 12 0 0
BITMAP
30
F0
00
60
60
60
60
60
60
60
60
60
ENDCHAR
STARTCHAR icircumflex
ENCODING 238
SWIDTH 278 0
DWIDTH 4 0
BBX 4 11 0 0
BITMAP
F0
00
60
60
60
60
60
60
60
60
60
ENDCHAR
STARTCHAR idieresis
ENCODING 239
SWIDTH 278 0
DWIDTH 4 0
BBX 5 12 0 0
BITMAP
98
98
00
60
60
60
60
60
60
60
60
60
ENDCHAR
STARTCHAR eth
ENCODING 240
SWIDTH 556 0
DWIDTH 9 0
BBX 7 11 1 0
BITMAP
7C
38
6C
36
7E
C6
C6
C6
C6
FC
78
ENDCHAR
STARTCHAR ntilde
ENCODING 241
SWIDTH 556 0
DWIDTH 9 0
BBX 7 11 1 0
BITMAP
7C
00
FC
FE
C6
C6
C6
C6
C6
C6
C6
ENDCHAR
STARTCHAR ograve
ENCODING 242
SWIDTH 556 0
DWIDTH 9 0
BBX 8 12 0 0
BITMAP
38
1E
00
3C
7F
63
63
E3
63
63
7F
3C
ENDCHAR
STARTCHAR oacute
ENCODING 243
SWIDTH 556 0
DWIDTH 9 0
BBX 8 12 0 0
BITMAP
0E
3C
00
3C
7F
63
63
E3
63
63
7F
3C
ENDCHAR
STARTCHAR ocircumflex
ENCODING 244
SWIDTH 556 0
DWIDTH 9 0
BBX 8 11 0 0
BITMAP
1C
20
3C
7F
63
63
E3
63
63
7F
3C
ENDCHAR
STARTCHAR otilde
ENCODING 245
SWIDTH 556 0
DWIDTH 9 0
BBX 8 11 0 0
BITMAP
3E
00
3C
7F
63
63
E3
63
63
7F
3C
ENDCHAR
STARTCHAR odieresis
ENCODING 246
SWIDTH 556 0
DWIDTH 9 0
BBX 8 12 0 0
BITMAP
26
36
00
3C
7F
63
63
E3
63
63
7F
3C
ENDCHAR
STARTCHAR divide
ENCODING 247
SWIDTH 600 0
DWIDTH 10 0
BBX 8 10 1 -1
BITMAP
18
38
18
00
FF
FF
00
18
38
18
ENDCHAR
STARTCHAR oslash
ENCODING 248
SWIDTH 556 0
DWIDTH 9 0
BBX 8 11 0 -1
BITMAP
03
3E
7F
67
6F
EB
7B
73
7F
3C
60
ENDCHAR
STARTCHAR ugrave
ENCODING 249
SWIDTH 556 0
DWIDTH 9 0
BBX 7 12 1 0
BITMAP
70
3C
00
C6
C6
C6
C6
C6
C6
C6
FE
7E
ENDCHAR
STARTCHAR uacute
ENCODING 250
SWIDTH 556 0
DWIDTH 9 0
BBX 7 12 1 0
BITMAP
1C
78
00
C6
C6
C6
C6
C6
C6
C6
FE
7E
ENDCHAR
STARTCHAR ucircumflex
ENCODING 251
SWIDTH 556 0
DWIDTH 9 0
BBX 7 11 1 0
BITMAP
38
40
C6
C6
C6
C6
C6
C6
C6
FE
7E
ENDCHAR
STARTCHAR udieresis
ENCODING 252
SWIDTH 556 0
DWIDTH 9 0
BBX 7 12 1 0
BITMAP
4C
6C
00
C6
C6
C6
C6
C6
C6
C6
FE
7E
ENDCHAR
STARTCHAR yacute
ENCODING 253
SWIDTH 500 0
DWIDTH 8 0
BBX 7 16 1 -4
BITMAP
18
78
00
86
86
C6
CC
CC
CC
78
78
30
30
60
60
40
ENDCHAR
STARTCHAR thorn
ENCODING 254
SWIDTH 556 0
DWIDTH 9 0
BBX 7 15 1 -4
BITMAP
C0
C0
F0
FC
CE
C6
C6
C6
C6
FE
FC
C0
C0
C0
C0
ENDCHAR
STARTCHAR ydieresis
ENCODING 255
SWIDTH 500 0
DWIDTH 8 0
BBX 7 16 1 -4
BITMAP
CC
CC
00
86
86
C6
CC
CC
CC
78
78
30
30
60
60
40
ENDCHAR
STARTCHAR .notdef
ENCODING -1
SWIDTH 500 0
DWIDTH 8 0
BBX 8 11 0 0
BITMAP
FF
C3
C3
A5
99
91
99
A5
C3
C3
FF
ENDCHAR
STARTCHAR quoteright
ENCODING -1
SWIDTH 222 0
DWIDTH 4 0
BBX 3 4 0 7
BITMAP
60
60
60
C0
ENDCHAR
STARTCHAR quoteleft
ENCODING -1
SWIDTH 222 0
DWIDTH 4 0
BBX 3 4 0 7
BITMAP
C0
C0
60
60
ENDCHAR
STARTCHAR fraction
ENCODING -1
SWIDTH 167 0
DWIDTH 3 0
BBX 8 11 -3 0
BITMAP
01
03
06
06
0C
18
18
30
60
E0
C0
ENDCHAR
STARTCHAR florin
ENCODING -1
SWIDTH 611 0
DWIDTH 10 0
BBX 10 15 0 -4
BITMAP
03C0
07C0
0600
0E00
3F00
3F00
0C00
0C00
0C00
1C00
1800
1800
1800
F800
F000
ENDCHAR
STARTCHAR quotedblleft
ENCODING -1
SWIDTH 389 0
DWIDTH 6 0
BBX 6 4 0 7
BITMAP
D8
D8
6C
6C
ENDCHAR
STARTCHAR guilsinglleft
ENCODING -1
SWIDTH 333 0
DWIDTH 5 0
BBX 3 6 1 1
BITMAP
60
60
C0
60
60
20
ENDCHAR
STARTCHAR guilsinglright
ENCODING -1
SWIDTH 333 0
DWIDTH 5 0
BBX 3 6 1 1
BITMAP
C0
C0
60
60
C0
C0
ENDCHAR
STARTCHAR fi
ENCODING -1
SWIDTH 611 0
DWIDTH 10 0
BBX 9 11 0 0
BITMAP
3F00
7F80
FF00
FF80
6180
6180
6180
6180
6180
6180
2100
ENDCHAR
STARTCHAR fl
ENCODING -1
SWIDTH 611 0
DWIDTH 10 0
BBX 9 11 0 0
BITMAP
3F00
7F80
FD80
F980
6180
6180
6180
6180
6180
6180
2100
ENDCHAR
STARTCHAR endash
ENCODING -1
SWIDTH 500 0
DWIDTH 8 0
BBX 8 1 0 4
BITMAP
FF
ENDCHAR
STARTCHAR dagger
ENCODING -1
SWIDTH 444 0
DWIDTH 7 0
BBX 5 11 1 0
BITMAP
20
20
F8
F8
20
20
20
30
30
70
20
ENDCHAR
STARTCHAR daggerdbl
ENCODING -1
SWIDTH 444 0
DWIDTH 7 0
BBX 5 11 1 0
BITMAP
20
20
F8
F8
30
30
30
F8
F8
20
20
ENDCHAR
STARTCHAR bullet
ENCODING -1
SWIDTH 500 0
DWIDTH 8 0
BBX 6 5 1 3
BITMAP
78
FC
FC
78
78
ENDCHAR
STARTCHAR quotesinglbase
ENCODING -1
SWIDTH 222 0
DWIDTH 4 0
BBX 3 4 0 -1
BITMAP
60
60
60
C0
ENDCHAR
STARTCHAR quotedblbase
ENCODING -1
SWIDTH 389 0
DWIDTH 6 0
BBX 6 4 0 -1
BITMAP
6C
6C
68
D8
ENDCHAR
STARTCHAR quotedblright
ENCODING -1
SWIDTH 389 0
DWIDTH 6 0
BBX 6 4 0 7
BITMAP
6C
6C
68
D8
ENDCHAR
STARTCHAR ellipsis
ENCODING -1
SWIDTH 1000 0
DWIDTH 16 0
BBX 12 2 2 0
BITMAP
C630
C630
ENDCHAR
STARTCHAR perthousand
ENCODING -1
SWIDTH 1000 0
DWIDTH 16 0
BBX 16 11 0 0
BITMAP
7180
F900
DB00
DA00
FE00
2D84
0FDF
1A7B
127B
33DF
21CE
ENDCHAR
STARTCHAR circumflex
ENCODING -1
SWIDTH 278 0
DWIDTH 4 0
BBX 4 2 0 9
BITMAP
60
D0
ENDCHAR
STARTCHAR tilde
ENCODING -1
SWIDTH 278 0
DWIDTH 4 0
BBX 5 2 0 9
BITMAP
C8
B0
ENDCHAR
STARTCHAR breve
ENCODING -1
SWIDTH 278 0
DWIDTH 4 0
BBX 5 2 0 9
BITMAP
88
F0
ENDCHAR
STARTCHAR dotaccent
ENCODING -1
SWIDTH 278 0
DWIDTH 4 0
BBX 2 2 1 9
BITMAP
C0
C0
ENDCHAR
STARTCHAR ring
ENCODING -1
SWIDTH 278 0
DWIDTH 4 0
BBX 4 3 0 9
BITMAP
60
90
60
ENDCHAR
STARTCHAR hungarumlaut
ENCODING -1
SWIDTH 278 0
DWIDTH 4 0
BBX 6 4 -1 8
BITMAP
24
6C
D8
90
ENDCHAR
STARTCHAR ogonek
ENCODING -1
SWIDTH 278 0
DWIDTH 4 0
BBX 4 4 0 -4
BITMAP
10
60
C0
70
ENDCHAR
STARTCHAR caron
ENCODING -1
SWIDTH 278 0
DWIDTH 4 0
BBX 5 2 0 9
BITMAP
98
70
ENDCHAR
STARTCHAR emdash
ENCODING -1
SWIDTH 1000 0
DWIDTH 16 0
BBX 16 1 0 4
BITMAP
FFFF
ENDCHAR
STARTCHAR Lslash
ENCODING -1
SWIDTH 444 0
DWIDTH 7 0
BBX 7 11 0 0
BITMAP
60
60
60
60
7C
F8
E0
60
60
7E
7E
ENDCHAR
STARTCHAR OE
ENCODING -1
SWIDTH 1000 0
DWIDTH 16 0
BBX 14 11 1 0
BITMAP
3EFC
7FFC
E3C0
C1FC
C1FC
C1C0
C1C0
C1C0
E3C0
7FFC
3EFC
ENDCHAR
STARTCHAR dotlessi
ENCODING -1
SWIDTH 278 0
DWIDTH 4 0
BBX 2 9 1 0
BITMAP
C0
C0
C0
C0
C0
C0
C0
C0
C0
ENDCHAR
STARTCHAR lslash
ENCODING -1
SWIDTH 278 0
DWIDTH 4 0
BBX 5 11 0 0
BITMAP
60
60
60
60
78
E0
E0
60
60
60
60
ENDCHAR
STARTCHAR oe
ENCODING -1
SWIDTH 833 0
DWIDTH 13 0
BBX 13 9 0 0
BITMAP
3CE0
7FF0
6718
C318
C3F8
C300
6700
7FF8
3CF8
ENDCHAR
STARTCHAR trademark
ENCODING -1
SWIDTH 1000 0
DWIDTH 16 0
BBX 14 7 1 4
BITMAP
FB8C
239C
23D4
2354
2374
2364
2324
ENDCHAR
STARTCHAR minus
ENCODING -1
SWIDTH 600 0
DWIDTH 10 0
BBX 8 2 1 3
BITMAP
FF
FF
ENDCHAR
STARTCHAR Scaron
ENCODING -1
SWIDTH 611 0
DWIDTH 10 0
BBX 8 14 1 0
BITMAP
24
1C
00
7E
FE
C0
F8
7E
07
03
03
07
FE
FC
ENDCHAR
STARTCHAR Ydieresis
ENCODING -1
SWIDTH 556 0
DWIDTH 9 0
BBX 9 14 0 0
BITMAP
3200
3200
0000
C180
E380
6300
7700
3E00
1C00
1C00
1C00
1C00
1C00
0800
ENDCHAR
STARTCHAR Zcaron
ENCODING -1
SWIDTH 500 0
DWIDTH 8 0
BBX 8 14 0 0
BITMAP
24
1C
00
7E
7F
06
06
0C
1C
30
60
60
FF
7F
ENDCHAR
STARTCHAR scaron
ENCODING -1
SWIDTH 500 0
DWIDTH 8 0
BBX 8 12 0 0
BITMAP
3C
18
00
7E
7E
60
7C
3E
03
03
7E
FC
ENDCHAR
STARTCHAR zcaron
ENCODING -1
SWIDTH 444 0
DWIDTH 7 0
BBX 7 12 0 0
BITMAP
2C
38
00
7E
7E
0C
1C
38
70
60
FE
FE
ENDCHAR
STARTCHAR Delta
ENCODING -1
SWIDTH 709 0
DWIDTH 11 0
BBX 11 11 0 0
BITMAP
0E00
0E00
1B00
1B00
1980
3180
31C0
60C0
60C0
4060
FFE0
ENDCHAR
STARTCHAR Omega
ENCODING -1
SWIDTH 786 0
DWIDTH 13 0
BBX 11 11 1 0
BITMAP
1F00
7F80
60C0
C0C0
C060
C060
C040
40C0
6080
3100
F3E0
ENDCHAR
STARTCHAR pi
ENCODING -1
SWIDTH 641 0
DWIDTH 10 0
BBX 10 8 0 0
BITMAP
FFC0
FFC0
3180
3180
3180
3180
6180
6180
ENDCHAR
STARTCHAR Euro
ENCODING -1
SWIDTH 611 0
DWIDTH 10 0
BBX 9 11 0 0
BITMAP
1F80
3F80
3000
FE00
7E00
7E00
FE00
3800
1C00
0F80
0780
ENDCHAR
STARTCHAR estimated
ENCODING -1
SWIDTH 844 0
DWIDTH 14 0
BBX 12 11 1 0
BITMAP
1F00
20C0
4020
C020
C030
C030
FFC0
C000
C000
4040
3F80
ENDCHAR
STARTCHAR partialdiff
ENCODING -1
SWIDTH 610 0
DWIDTH 10 0
BBX 8 13 1 0
BITMAP
10
FC
0E
06
03
03
7F
C7
C3
C3
C6
FC
78
ENDCHAR
STARTCHAR product
ENCODING -1
SWIDTH 767 0
DWIDTH 12 0
BBX 12 13 0 -2
BITMAP
FFF0
FFF0
30C0
30C0
30C0
30C0
30C0
30C0
30C0
30C0
30C0
30C0
30C0
ENDCHAR
STARTCHAR summation
ENCODING -1
SWIDTH 602 0
DWIDTH 10 0
BBX 9 13 0 -2
BITMAP
7F80
7F80
7000
3000
1800
0C00
0600
0C00
1800
3000
6000
FF80
FF80
ENDCHAR
STARTCHAR uni2219
ENCODING -1
SWIDTH 305 0
DWIDTH 5 0
BBX 3 2 1 3
BITMAP
E0
C0
ENDCHAR
STARTCHAR radical
ENCODING -1
SWIDTH 626 0
DWIDTH 10 0
BBX 9 15 1 -2
BITMAP
0080
0180
0180
0100
0100
0300
0300
E200
6200
2600
3600
3400
1400
1C00
0800
ENDCHAR
STARTCHAR infinity
ENCODING -1
SWIDTH 799 0
DWIDTH 13 0
BBX 11 6 1 1
BITMAP
71C0
8A60
8C20
8420
8A60
71C0
ENDCHAR
STARTCHAR integral
ENCODING -1
SWIDTH 395 0
DWIDTH 6 0
BBX 6 15 0 -2
BITMAP
1C
10
30
30
30
30
30
30
30
30
30
30
30
30
E0
ENDCHAR
STARTCHAR approxequal
ENCODING -1
SWIDTH 590 0
DWIDTH 9 0
BBX 8 6 1 1
BITMAP
71
9E
00
71
9A
8E
ENDCHAR
STARTCHAR notequal
ENCODING -1
SWIDTH 590 0
DWIDTH 9 0
BBX 8 9 1 0
BITMAP
04
08
FF
08
10
10
FF
20
60
ENDCHAR
STARTCHAR lessequal
ENCODING -1
SWIDTH 590 0
DWIDTH 9 0
BBX 8 10 1 0
BITMAP
01
0E
38
E0
C0
70
0C
03
00
FF
ENDCHAR
STARTCHAR greaterequal
ENCODING -1
SWIDTH 590 0
DWIDTH 9 0
BBX 8 10 1 0
BITMAP
80
E0
18
06
03
0C
70
C0
00
FF
ENDCHAR
STARTCHAR lozenge
ENCODING -1
SWIDTH 626 0
DWIDTH 10 0
BBX 8 12 1 -1
BITMAP
18
3C
24
66
42
C3
C3
42
66
34
3C
18
ENDCHAR
STARTCHAR uni02C9
ENCODING -1
SWIDTH 278 0
DWIDTH 4 0
BBX 5 1 0 10
BITMAP
F8
ENDCHAR
STARTCHAR uni03A9
ENCODING -1
SWIDTH 786 0
DWIDTH 13 0
BBX 11 11 1 0
BITMAP
1F00
7F80
60C0
C0C0
C060
C060
C040
40C0
6080
3100
F3E0
ENDCHAR
STARTCHAR afii61289
ENCODING -1
SWIDTH 552 0
DWIDTH 9 0
BBX 7 12 1 0
BITMAP
38
6C
64
64
6C
68
70
60
E0
E2
7E
3C
ENDCHAR
STARTCHAR uni03BC
ENCODING -1
SWIDTH 556 0
DWIDTH 9 0
BBX 7 13 1 -4
BITMAP
C6
C6
C6
C6
C6
C6
C6
FE
FE
C0
C0
C0
C0
ENDCHAR
STARTCHAR uni2215
ENCODING -1
SWIDTH 167 0
DWIDTH 3 0
BBX 8 11 -3 0
BITMAP
01
03
06
06
0C
18
18
30
60
E0
C0
ENDCHAR
ENDFONT
